# xmcd CD database file
#
# Track frame offsets:
#	150
#	30978
#	71015
#	113751
#	146772
#	178915
#	192618
#	233598
#	260921
#	296125
#
# Disc length: 4096 seconds
#
# Revision: 0
# Processed by: cddbd v1.5.2PL0 Copyright (c) Steve Scherf et al.
# Submitted via: CDex 1.70beta2
#
DISCID=9d0ffe0a
DTITLE=CaraïbIIJazz - CaraïbIIJazz
DYEAR=2007
DGENRE=Jazz
TTITLE0=Gwadafrika
TTITLE1=Remember malecone (f. Laurent Coatalen)
TTITLE2=Flying colors
TTITLE3=Medites (f. Laurent Coatalen)
TTITLE4=Yelale (f. Jacques Schwartz-Bart and Dominique Tauliaut)
TTITLE5=Nanou
TTITLE6=1.50m
TTITLE7=Five 4 u
TTITLE8=Vermine
TTITLE9=Fanm Kréol
EXTD=YEAR: 2007
EXTT0=
EXTT1=
EXTT2=
EXTT3=
EXTT4=
EXTT5=
EXTT6=
EXTT7=
EXTT8=
EXTT9=
PLAYORDER=
